<?xml version="1.0" encoding="UTF-8"?>
<svg width="98px" height="29px" viewBox="0 0 98 29" version="1.1" xmlns="http://www.w3.org/2000/svg" xmlns:xlink="http://www.w3.org/1999/xlink">
    <!-- Generator: Sketch 48.1 (47250) - http://www.bohemiancoding.com/sketch -->
    <title>harver logo</title>
    <desc>Created with Sketch.</desc>
    <defs></defs>
    <g id="Harver_LP_AB" stroke="none" stroke-width="1" fill="none" fill-rule="evenodd" transform="translate(-66.000000, -20.000000)">
        <g id="NAV" transform="translate(66.000000, 20.000000)" fill="#262626">
            <path d="M97.6340924,10.5979879 C97.3352161,10.530523 97.4019018,10.530523 96.8701437,10.530523 L96.3045246,10.530523 C94.5098844,10.564432 92.1168005,10.9342525 90.6880679,11.4711456 C89.2589897,11.9748362 88.6608915,12.377506 88.6608915,13.7543543 L88.6608915,28.0597306 C88.6608915,28.3620862 89.0924482,28.5634211 89.1926496,28.5634211 L91.95095,28.5634211 C92.2501719,28.5634211 92.4491924,28.3620862 92.4491924,28.0597306 L92.4491924,14.0567099 C93.7124201,13.721505 95.4738902,13.5194636 97.5342366,13.5194636 C97.9333143,13.5194636 98,13.2849261 98,13.0157731 L98,11.1020316 C98,10.7325644 97.7674638,10.6318969 97.6340924,10.5979879 L97.6340924,10.5979879 Z M72.6735983,19.0607659 C72.7064228,17.9188083 72.7064228,16.8104066 72.9728201,15.7691165 C73.4047224,13.8892841 74.4682384,13.2174612 76.8944925,13.2174612 C79.1210349,13.2174612 80.2180666,13.855375 80.7166545,15.8365813 C80.9823608,16.8439624 81.0158764,17.8852525 81.0158764,19.0265036 L72.6735983,19.0607659 L72.6735983,19.0607659 Z M76.8944925,10.4973204 C70.3803701,10.4973204 68.8514362,13.721505 68.8514362,19.7989939 C68.8514362,26.2127476 71.1778344,29 77.6923023,29 C80.1513809,29 82.3782688,28.4631069 83.6079808,27.9590631 C83.8073469,27.8587489 83.9735429,27.7238192 83.9735429,27.4889284 C83.9735429,27.4553726 83.9735429,27.3886142 83.9403728,27.3547051 L83.5416407,25.8100777 C83.4421304,25.5077221 83.3091045,25.4074079 83.1093929,25.4074079 C83.0762228,25.4074079 83.0098826,25.4074079 82.9431969,25.4406105 C81.7134849,25.7761687 80.2847523,26.2466566 78.1905447,26.2466566 C76.1961929,26.2466566 74.833455,25.944301 73.9033103,25.0375874 C73.1055005,24.2650971 72.7064228,23.3248277 72.6735983,21.6795328 L84.2395947,21.6795328 C84.6051567,21.6795328 84.8045228,21.3436213 84.8045228,21.041619 C84.8380384,20.5379284 84.8380384,19.8664588 84.8380384,19.4298799 C84.8380384,16.8104066 84.5388166,14.6946238 83.4753005,13.1835522 C82.3119286,11.437943 80.2847523,10.4973204 76.8944925,10.4973204 L76.8944925,10.4973204 Z M66.2918108,10.9342525 L63.4004844,10.9342525 C63.0345769,10.9342525 62.8355563,11.1020316 62.735355,11.437943 L59.1460746,26.0449685 L58.2822701,26.0449685 L54.2603965,11.437943 C54.1608862,11.1020316 54.0282059,10.9342525 53.6287827,10.9342525 L50.804142,10.9342525 C50.5384358,10.9342525 50.3387242,11.16879 50.3387242,11.437943 C50.3387242,11.5047015 50.3722398,11.5721663 50.3722398,11.6389248 L55.4901086,28.026528 C55.5899644,28.3620862 55.8225005,28.5634211 56.155238,28.5634211 L61.2067666,28.5634211 C61.5391585,28.5634211 61.7720402,28.3620862 61.8715505,28.026528 L66.7903987,11.5721663 C66.7903987,11.5386105 66.8235688,11.4711456 66.8235688,11.437943 C66.8235688,11.1355874 66.5910327,10.9342525 66.2918108,10.9342525 L66.2918108,10.9342525 Z M48.377888,10.5979879 C48.0786661,10.530523 48.1453519,10.530523 47.6135938,10.530523 L47.0486657,10.530523 C45.2540255,10.564432 42.8605961,10.9342525 41.4318635,11.4711456 C40.0024398,11.9748362 39.4039961,12.377506 39.4039961,13.7543543 L39.4039961,28.0597306 C39.4039961,28.3620862 39.8362438,28.5634211 39.9360996,28.5634211 L42.6944001,28.5634211 C42.9939675,28.5634211 43.192988,28.3620862 43.192988,28.0597306 L43.192988,14.0567099 C44.4562157,13.721505 46.2173403,13.5194636 48.2783777,13.5194636 C48.6771099,13.5194636 48.7437956,13.2849261 48.7437956,13.0157731 L48.7437956,11.1020316 C48.7437956,10.7325644 48.5105684,10.6318969 48.377888,10.5979879 L48.377888,10.5979879 Z M31.2939086,25.8436335 C30.3302483,26.179545 29.0670207,26.3808799 27.7042827,26.3808799 C25.9096425,26.3808799 23.5828988,26.179545 23.5828988,23.2912718 C23.5828988,20.9073957 24.9791523,20.7731724 26.4082305,20.5379284 L31.2939086,19.7318823 L31.2939086,25.8436335 L31.2939086,25.8436335 Z M33.154889,11.404034 C32.1248885,10.8335851 30.5627845,10.4973204 28.2028707,10.4973204 C24.9456367,10.4973204 21.9879702,11.2698107 21.0571345,11.6053689 C20.8909385,11.6724806 20.6915724,11.773148 20.6915724,12.0755036 L20.6915724,12.1761711 L21.0906501,14.0567099 C21.1238202,14.2580449 21.2900162,14.325863 21.4230421,14.325863 C21.5225523,14.325863 21.5892381,14.2919539 21.6555782,14.2919539 C22.78578,14.0231541 25.1450028,13.3516845 27.5380867,13.3516845 C28.8344845,13.3516845 29.6986345,13.452352 30.2635626,13.6875959 C31.2272229,14.0902658 31.2939086,14.828847 31.2939086,15.8365813 L31.2939086,17.0792064 L25.2448586,18.0865874 C22.3203622,18.5902779 19.7279122,18.9597452 19.7279122,23.3587367 C19.7279122,28.7312002 24.2811983,29 27.6047724,29 C29.4329282,29 30.9950322,28.7983119 32.0913729,28.5302185 C34.384601,27.9929722 35.0493849,27.4889284 35.0493849,25.0375874 L35.0493849,15.7362671 C35.0493849,13.9560425 34.8835345,12.377506 33.154889,11.404034 L33.154889,11.404034 Z M10.4212827,10.4973204 C8.62664255,10.4973204 6.16721844,10.9003435 4.43926397,11.370125 C4.43926397,11.370125 4.90537286,1.70604857 0,0 C1.23316727,3.29800736 1.01583406,10.161409 1.01583406,10.530523 L1.01583406,28.0597306 C1.01583406,28.3620862 1.24871575,28.5634211 1.5475921,28.5634211 L4.30589256,28.5634211 C4.60545995,28.5634211 4.8044805,28.3620862 4.8044805,28.0597306 L4.8044805,13.9221334 C4.8044805,13.9221334 7.33059031,13.251017 9.82318451,13.251017 C11.8175363,13.251017 12.4823202,13.9899515 12.4823202,15.8704904 L12.4823202,28.0597306 C12.4823202,28.3620862 12.6813408,28.5634211 13.0137327,28.5634211 L15.7392086,28.5634211 C16.038085,28.5634211 16.2377966,28.3620862 16.2377966,28.0597306 L16.2377966,15.3328908 C16.2377966,11.6724806 14.2769604,10.4973204 10.4212827,10.4973204 L10.4212827,10.4973204 Z" id="harver-logo"></path>
        </g>
    </g>
</svg>