<svg width="77" height="80" viewBox="0 0 77 80" fill="none" xmlns="http://www.w3.org/2000/svg">
<path d="M10.8229 62.8617C6.62356 57.5313 3.98827 51.0938 3.22823 44.2929C2.46817 37.4919 3.61536 30.6126 6.53391 24.4522C9.45225 18.2923 14.0202 13.1072 19.7023 9.49085C25.384 5.87486 31.9499 3.97315 38.6412 4.00029C45.3325 4.02743 51.8835 5.98236 57.5369 9.64445C63.1908 13.3069 67.7181 18.5291 70.5882 24.7127C73.4585 30.8967 74.5518 37.7852 73.7386 44.5798C72.9253 51.3742 70.2398 57.79 65.9991 63.0859" stroke="white" stroke-width="6"/>
<line y1="-1.5" x2="9.91348" y2="-1.5" transform="matrix(-0.804027 -0.594593 0.580822 -0.81403 69.7656 62.8164)" stroke="white" stroke-width="3"/>
<line y1="-1.5" x2="8.82236" y2="-1.5" transform="matrix(0.78718 -0.616723 0.603013 0.797732 8.74805 64.3604)" stroke="white" stroke-width="3"/>
<line y1="-1.5" x2="10.5464" y2="-1.5" transform="matrix(0.995179 -0.0980737 0.0946565 0.99551 1.96875 52.75)" stroke="white" stroke-width="3"/>
<line y1="-1.5" x2="10.5454" y2="-1.5" transform="matrix(0.997845 0.0656093 -0.0633116 0.997994 0.873047 39.9219)" stroke="white" stroke-width="3"/>
<line y1="-1.5" x2="10.6369" y2="-1.5" transform="matrix(0.713275 0.700884 -0.688015 0.725696 14.3281 10.7988)" stroke="white" stroke-width="3"/>
<line y1="-1.5" x2="10.5738" y2="-1.5" transform="matrix(0.918275 0.395944 -0.384107 0.923289 3.92383 25.4658)" stroke="white" stroke-width="3"/>
<line y1="-1.5" x2="10.5643" y2="-1.5" transform="matrix(0.945579 -0.325392 0.315105 0.949057 63.2656 29.4023)" stroke="white" stroke-width="3"/>
<line y1="-1.5" x2="6.17778" y2="-1.5" transform="matrix(0.753049 -0.657965 0.64454 0.76457 55.4199 17.9766)" stroke="white" stroke-width="3"/>
<line y1="-1.5" x2="10.735" y2="-1.5" transform="matrix(0.0288754 0.999583 -0.999552 0.0299269 36.7852 1)" stroke="white" stroke-width="3"/>
<line y1="-1.5" x2="10.5448" y2="-1.5" transform="matrix(0.999446 -0.033292 0.0321226 0.999484 65.2285 40.4453)" stroke="white" stroke-width="3"/>
<line y1="-1.5" x2="10.5458" y2="-1.5" transform="matrix(0.996767 0.0803453 -0.0775374 0.996989 63.2656 51.4297)" stroke="white" stroke-width="3"/>
<ellipse cx="38.4473" cy="43.3688" rx="3.00781" ry="3.06213" fill="#FFFEFD"/>
<path d="M38.5 16.5889L40.0155 43.3964H36.9845L38.5 16.5889Z" fill="#FFFEFD"/>
</svg>
