<svg xmlns="http://www.w3.org/2000/svg" width="180" height="117" viewBox="0 0 180 117">
    <defs>
        <linearGradient id="dpuocpaisa" x1="50%" x2="50%" y1="26.658%" y2="5.522%">
            <stop offset="0%" stop-color="#3C9FD9"/>
            <stop offset="100%" stop-color="#307DA8"/>
        </linearGradient>
        <linearGradient id="z8oomouunb" x1="50.011%" x2="50.011%" y1="45.196%" y2="23.858%">
            <stop offset="0%" stop-color="#604E80"/>
            <stop offset="100%" stop-color="#4C3D64"/>
        </linearGradient>
    </defs>
    <g fill="none" fill-rule="evenodd">
        <g fill-rule="nonzero">
            <g>
                <g fill="#604E80">
                    <path d="M122.954 116.148l-12.672-14.928L122.07 86.96l-5.473.015L106.25 99.77V86.959h-4.609v29.187h4.61l.087-12.863 10.755 12.874 5.86-.01zM88.52 92.258c.89.869 1.375 2.07 1.338 3.313.015 1.36-.533 2.664-1.514 3.605-.987.998-2.342 1.545-3.745 1.512h-2.76v-9.743h2.672c1.781 0 3.117.438 4.009 1.314m9.446 23.887c-1.625-2.656-3.043-4.966-4.255-6.932-1.21-1.963-2.184-3.468-2.923-4.517-.738-1.047-1.3-1.676-1.683-1.881 1.56-.603 2.93-1.612 3.965-2.925 1.043-1.372 1.582-3.06 1.528-4.783.081-2.228-.817-4.38-2.458-5.89-1.64-1.506-4.189-2.259-7.645-2.26H77.23v29.188h4.609V104.32h2.702c.654.179 3.327 4.12 8.02 11.826h5.405zM64.69 93.669c1.743 1.992 2.614 4.657 2.614 7.994 0 3.366-.894 6.031-2.682 7.996-1.787 1.963-4.157 2.944-7.11 2.944-2.984 0-5.37-.981-7.157-2.944-1.788-1.965-2.68-4.63-2.68-7.996 0-3.396.894-6.076 2.68-8.04 1.788-1.962 4.173-2.944 7.157-2.944 3.04 0 5.433.997 7.178 2.99m-20.87 2.103c-.725 1.924-1.085 3.967-1.063 6.024 0 4.636 1.433 8.26 4.298 10.873 2.848 2.608 6.596 4.014 10.457 3.921 2.005.022 3.996-.332 5.871-1.042 1.786-.693 3.713-2.058 5.783-4.095 2.065-2.038 3.1-5.315 3.101-9.833 0-4.192-.945-7.338-2.837-9.436-1.89-2.096-3.772-3.535-5.65-4.318-1.99-.804-4.121-1.203-6.268-1.174-2.02-.015-4.022.37-5.893 1.13-1.764.708-3.363 1.771-4.697 3.123-1.354 1.38-2.41 3.022-3.102 4.827m-3.234-8.813l-4.772.004-5.717 18.025c-.454 1.447-.89 2.878-1.311 4.294-.497-1.478-.98-2.954-1.447-4.429l-6.205-17.894-4.736-.003 2.01 5.524-4.531 12.73c-.242.74-.512 1.507-.81 2.303-.298.799-.524 1.433-.673 1.904l-1.311-4.241L5.12 86.963 0 86.96l10.367 29.365h3.677l5.009-13.642c.354-.945.627-1.705.819-2.28.192-.576.422-1.248.686-2.015.235.825.469 1.586.702 2.283.233.695.466 1.382.7 2.062l4.905 13.603 3.796-.011 9.925-29.365zM179.867 29.277V25.29h-11.033v-8.946h9.526v-3.986h-9.526V4.075h9.564L179.822.09h-15.597v29.187h15.642zm-19.319 0L147.874 14.35 159.661.09l-5.473.016-10.345 12.795V.091h-4.607v29.186h4.607l.088-12.863 10.756 12.874 5.861-.01zm-34.424-11.34l-7.868-.007 2.882-7.838c.362-.943.61-1.628.743-2.055.135-.427.293-.92.474-1.48.1.577.242 1.146.424 1.703.192.605.409 1.232.646 1.88l2.7 7.797zm9.433 11.34L123.994 0h-3.235l-11.3 29.277h4.61l2.727-7.44h10.868l2.891 7.438 5.002.002zm-29.862 0V.09h-4.519l-7.844 12.313c-.519.828-.837 1.358-.952 1.595-.115.234-.359.708-.736 1.417-.546-1.01-1.15-1.986-1.81-2.924L81.37.09h-4.431v29.186h4.607V9.235c0-.427-.014-.982-.043-1.66.243.542.527 1.066.848 1.567.298.456.582.875.851 1.257l7.187 10.535 2.467.051 6.598-10.44c.205-.324.484-.775.837-1.35.325-.524.62-1.065.885-1.62v21.702h4.519z" transform="translate(-666 -879) translate(666 879)"/>
                </g>
                <path fill="url(#dpuocpaisa)" d="M78 52.5H88.5V79.5H78z" transform="translate(-666 -879) translate(666 879)"/>
                <path fill="#604E80" d="M78 37.5H94.5V48H78z" transform="translate(-666 -879) translate(666 879)"/>
                <path fill="url(#z8oomouunb)" d="M94.5 37.5H105V78H94.5z" transform="translate(-666 -879) translate(666 879)"/>
                <path fill="#3C9FD9" d="M88.5 37.5H118.5V48H88.5z" transform="translate(-666 -879) translate(666 879)"/>
            </g>
        </g>
    </g>
</svg>
